<?xml version="1.0" encoding="UTF-8"?>
<svg version="1.1" xmlns="http://www.w3.org/2000/svg" width="912" height="272">
<path d="M0 0 C33.11557185 -0.98147139 60.07765089 8.675639 84.93359375 30.5859375 C100.62840941 45.41252931 111.54407035 65.5400425 118 86 C118.31759277 86.99362549 118.31759277 86.99362549 118.64160156 88.00732422 C121.6756784 97.95342238 122.37223356 107.6893022 122.4375 118.0625 C122.44765137 119.18495117 122.45780273 120.30740234 122.46826172 121.46386719 C122.37188815 130.87047035 120.83878524 139.81600183 119 149 C118.72052017 150.40812454 118.72052017 150.40812454 118.43539429 151.84469604 C116.71244038 160.50780286 114.95464557 169.16384663 113.18310547 177.81713867 C112.51094484 181.10508857 111.84492591 184.39423734 111.1796875 187.68359375 C110.97552216 188.67233994 110.77135681 189.66108612 110.56100464 190.67979431 C109.33370704 196.77224859 108.49201366 202.80429398 108 209 C108.38220703 207.98276855 108.76441406 206.96553711 109.15820312 205.91748047 C110.60754404 202.0697981 112.07260568 198.22825039 113.54199219 194.38818359 C114.17050646 192.73937474 114.79499642 191.08902502 115.41503906 189.43701172 C121.0360538 174.47492557 127.45733731 161.20948684 138 149 C138.88558594 147.89785156 138.88558594 147.89785156 139.7890625 146.7734375 C160.37591609 121.98160956 191.64747476 112.16654999 222.5625 108.625 C223.37831543 108.52799805 224.19413086 108.43099609 225.03466797 108.33105469 C227.01617455 108.13175914 229.00925282 108.05488805 231 108 C231.66 108.66 232.32 109.32 233 110 C232.72398737 136.4282089 219.79658188 162.19157233 202 181 C201.31164062 181.7528125 200.62328125 182.505625 199.9140625 183.28125 C181.0966687 203.14794085 153.00044258 215.13813099 125.77368164 216.20532227 C122.01444265 216.30703523 118.25728858 216.32642369 114.49682617 216.31567383 C112.19987267 216.312517 109.90421738 216.33607245 107.60742188 216.36132812 C75.58220449 216.49835338 48.19831016 204.88519827 25 183 C24.36191406 182.41476563 23.72382812 181.82953125 23.06640625 181.2265625 C18.26280629 176.66902668 14.61548682 171.52808773 11 166 C10.49597656 165.26394531 9.99195312 164.52789062 9.47265625 163.76953125 C-16.74168523 123.37024107 -10.47316164 67.35586138 -4.5 22.25 C-4.3924942 21.42833344 -4.2849884 20.60666687 -4.17422485 19.76010132 C-3.86356558 17.40663537 -3.54300997 15.05475155 -3.21875 12.703125 C-3.12603317 11.99897964 -3.03331635 11.29483429 -2.93778992 10.5693512 C-2.40191447 6.7851112 -1.59221592 3.47897495 0 0 Z M106 212 C107 214 107 214 107 214 Z " fill="#EECE62" transform="translate(42,33)"/>
<path d="M0 0 C33.11557185 -0.98147139 60.07765089 8.675639 84.93359375 30.5859375 C105.35801375 49.88049597 117.06525737 76.74280397 122 104 C122 104.99 122 105.98 122 107 C105.19776179 107.02332875 88.39552861 107.04097906 71.59327793 107.05181217 C63.79224164 107.05697518 55.99121539 107.06401797 48.19018555 107.07543945 C41.39323687 107.08538615 34.59629546 107.09185339 27.79933971 107.09408849 C24.19821869 107.09539563 20.59711848 107.09848164 16.9960041 107.10573006 C12.98243398 107.11374364 8.96890036 107.11399115 4.95532227 107.11352539 C3.15134727 107.1189183 3.15134727 107.1189183 1.31092834 107.12442017 C0.22412781 107.1230455 -0.86267273 107.12167084 -1.98240662 107.12025452 C-2.93277518 107.12117631 -3.88314375 107.1220981 -4.86231136 107.12304783 C-7 107 -7 107 -8 106 C-12.27620096 78.60063826 -8.10702427 49.48816071 -4.5 22.25 C-4.3924942 21.42833344 -4.2849884 20.60666687 -4.17422485 19.76010132 C-3.86356558 17.40663537 -3.54300997 15.05475155 -3.21875 12.703125 C-3.12603317 11.99897964 -3.03331635 11.29483429 -2.93778992 10.5693512 C-2.40191447 6.7851112 -1.59221592 3.47897495 0 0 Z " fill="#664AC0" transform="translate(42,33)"/>
<path d="M0 0 C-2.19954545 27.15300932 -12.23282263 51.16579248 -31 71 C-32.03253906 72.12921875 -32.03253906 72.12921875 -33.0859375 73.28125 C-50.51486349 91.68204918 -77.55959509 104.72014945 -103 106 C-111.33301194 106.19900926 -119.66638851 106.12760536 -128 106 C-127.07967307 103.23901922 -125.97573275 100.76471511 -124.734375 98.13671875 C-122.34777333 92.92779796 -120.36849781 87.64423699 -118.46240234 82.24389648 C-112.74865585 66.0725902 -106.37896941 52.00453647 -95 39 C-94.41089844 38.2678125 -93.82179687 37.535625 -93.21484375 36.78125 C-72.74870242 12.10021332 -41.71999224 2.37202367 -11 -1.375 C-10.24017822 -1.47200195 -9.48035645 -1.56900391 -8.69750977 -1.66894531 C-3.36345435 -2.2423029 -3.36345435 -2.2423029 0 0 Z " fill="#4C32A9" transform="translate(275,143)"/>
<path d="M0 0 C28.86525654 9.73577477 51.2713468 33.07021739 65.015625 59.59375 C75.7741821 81.83308215 75.7741821 81.83308215 73.203125 92.46875 C37.27713638 91.34956032 6.47054817 80.17208842 -19.796875 55.46875 C-20.39886719 54.93121094 -21.00085938 54.39367187 -21.62109375 53.83984375 C-35.56478246 40.87123816 -49.94991738 16.83620599 -50.953125 -2.55078125 C-50.9015625 -3.20433594 -50.85 -3.85789063 -50.796875 -4.53125 C-37.57038602 -11.14449449 -13.40412286 -4.26035374 0 0 Z " fill="#E36A46" transform="translate(199.796875,40.53125)"/>
<path d="M0 0 C1.25159912 0.00523682 2.50319824 0.01047363 3.79272461 0.01586914 C4.78942421 0.01799156 4.78942421 0.01799156 5.80625916 0.02015686 C7.93590735 0.02577021 10.06545175 0.03832485 12.19506836 0.05102539 C13.63582205 0.05603868 15.07657739 0.06060188 16.51733398 0.06469727 C20.05577938 0.07574394 23.59416375 0.09301747 27.13256836 0.11352539 C30.87942339 7.42284764 34.35717688 14.75370937 37.44506836 22.36352539 C40.63984485 30.13564653 43.87517303 37.88796435 47.17163086 45.61743164 C47.52811707 46.45332321 47.88460327 47.28921478 48.25189209 48.1504364 C49.35771107 50.74240179 50.46387022 53.33422181 51.57006836 55.92602539 C59.74390702 75.07785816 59.74390702 75.07785816 63.53100586 84.44165039 C63.78537918 85.0704863 64.0397525 85.6993222 64.30183411 86.34721375 C65.45513237 89.20491818 66.59943724 92.06590989 67.73388672 94.93115234 C69.86553645 100.26049361 72.13143595 105.21694094 75.13256836 110.11352539 C72.66077186 112.58532189 71.92092254 112.36998774 68.51928711 112.37915039 C67.14160156 112.38301758 67.14160156 112.38301758 65.73608398 112.38696289 C64.77379883 112.37922852 63.81151367 112.37149414 62.82006836 112.36352539 C61.39404297 112.37512695 61.39404297 112.37512695 59.93920898 112.38696289 C58.55572266 112.3830957 58.55572266 112.3830957 57.14428711 112.37915039 C56.30341553 112.37689453 55.46254395 112.37463867 54.59619141 112.37231445 C51.64678305 112.06249651 49.71191048 111.61076954 47.13256836 110.11352539 C45.58691406 107.36376953 45.58691406 107.36376953 44.30834961 103.89868164 C44.0760112 103.2871373 43.84367279 102.67559296 43.60429382 102.04551697 C42.86699506 100.09507281 42.1553468 98.13645166 41.44506836 96.17602539 C40.71908778 94.22138825 39.98795679 92.26879073 39.25370789 90.31724548 C38.59004184 88.54577515 37.93969913 86.76933037 37.29003906 84.99267578 C36.19530258 81.98629209 36.19530258 81.98629209 34.13256836 79.11352539 C32.21568038 78.67072922 32.21568038 78.67072922 29.98999023 78.75708008 C29.13570435 78.75407898 28.28141846 78.75107788 27.40124512 78.74798584 C26.47726929 78.76033264 25.55329346 78.77267944 24.60131836 78.78540039 C23.65446167 78.78727356 22.70760498 78.78914673 21.73205566 78.79107666 C19.72799159 78.79780614 17.72394085 78.81173831 15.7199707 78.83227539 C12.64514012 78.86339814 9.57082199 78.87324172 6.49584961 78.87915039 C4.55183292 78.88832141 2.60782146 78.8986975 0.66381836 78.91040039 C-0.26015747 78.91465027 -1.1841333 78.91890015 -2.1361084 78.92327881 C-3.41753723 78.93769012 -3.41753723 78.93769012 -4.72485352 78.95239258 C-5.47827026 78.95922058 -6.23168701 78.96604858 -7.00793457 78.9730835 C-8.96106429 79.00259916 -8.96106429 79.00259916 -10.86743164 80.11352539 C-12.04211784 82.38882969 -12.04211784 82.38882969 -13.14477539 85.17993164 C-13.5759668 86.22342773 -14.0071582 87.26692383 -14.45141602 88.34204102 C-14.89807617 89.44225586 -15.34473633 90.5424707 -15.80493164 91.67602539 C-16.24772461 92.74916992 -16.69051758 93.82231445 -17.14672852 94.92797852 C-19.48845025 100.62698238 -21.70267951 106.34085304 -23.86743164 112.11352539 C-32.11743164 112.11352539 -40.36743164 112.11352539 -48.86743164 112.11352539 C-50.10927626 107.1461469 -48.69340711 104.61895864 -46.66821289 100.17602539 C-46.32227585 99.39264297 -45.97633881 98.60926056 -45.61991882 97.80213928 C-44.48355789 95.23455504 -43.3316028 92.67427392 -42.17993164 90.11352539 C-41.38631045 88.32561057 -40.59400245 86.53711231 -39.80297852 84.74804688 C-38.22139534 81.17251795 -36.63529726 77.59905204 -35.0456543 74.02709961 C-32.26443985 67.76677646 -29.55533373 61.47699244 -26.86743164 55.17602539 C-26.41368164 54.11601318 -25.95993164 53.05600098 -25.49243164 51.96386719 C-22.83809234 45.75571299 -20.19981264 39.54086095 -17.56741333 33.32337952 C-15.99605605 29.6121595 -14.42322598 25.90156404 -12.85058594 22.19088745 C-11.69471333 19.46093691 -10.54173913 16.72977458 -9.38891602 13.99853516 C-8.68004572 12.32457734 -7.97106659 10.6506656 -7.26196289 8.97680664 C-6.93339798 8.19597717 -6.60483307 7.41514771 -6.26631165 6.61065674 C-3.51927351 0.13933267 -3.51927351 0.13933267 0 0 Z M11.13256836 21.11352539 C7.13131852 28.70791053 3.84838637 36.48502891 0.75756836 44.48852539 C0.29479492 45.6499707 -0.16797852 46.81141602 -0.64477539 48.00805664 C-1.07661133 49.1230957 -1.50844727 50.23813477 -1.95336914 51.38696289 C-2.34572754 52.39162598 -2.73808594 53.39628906 -3.14233398 54.43139648 C-3.88812138 57.19005652 -3.86173954 58.47849193 -2.86743164 61.11352539 C1.24429396 61.13818285 5.35599114 61.15636498 9.46777344 61.16845703 C10.86752064 61.17349619 12.26726256 61.18032756 13.66699219 61.18896484 C15.67502613 61.20104859 17.68309793 61.20622346 19.69116211 61.21118164 C20.9008667 61.21641846 22.11057129 61.22165527 23.35693359 61.22705078 C26.04068853 61.43127824 26.04068853 61.43127824 27.13256836 60.11352539 C26.76330889 53.66958565 24.93742599 48.59231803 22.32006836 42.73852539 C21.59001458 41.06573519 20.86083914 39.39256137 20.13256836 37.71899414 C19.78452148 36.92541504 19.43647461 36.13183594 19.07788086 35.31420898 C17.5971308 31.86702896 16.29069039 28.35728848 15.01928711 24.82836914 C14.12427252 22.75821668 14.12427252 22.75821668 11.13256836 21.11352539 Z " fill="#424242" transform="translate(369.867431640625,71.886474609375)"/>
<path d="M0 0 C7.77600398 6.27097095 13.92958141 15.89895173 15.2512207 25.95092773 C15.40724379 28.57055277 15.45170947 31.16099891 15.43359375 33.78515625 C15.43004883 34.7088501 15.42650391 35.63254395 15.42285156 36.58422852 C15.24166924 44.06718963 13.74622522 50.02605499 9.93359375 56.53515625 C9.33546875 57.60765625 8.73734375 58.68015625 8.12109375 59.78515625 C1.09297795 68.62050183 -6.57626389 74.81424234 -18.06640625 76.53515625 C-28.83752113 77.22663523 -38.85549125 76.57981922 -48.06640625 70.53515625 C-49.05640625 70.53515625 -50.04640625 70.53515625 -51.06640625 70.53515625 C-51.0914624 71.4387085 -51.11651855 72.34226074 -51.14233398 73.27319336 C-51.23727942 76.61479905 -51.33652246 79.95621877 -51.4387207 83.29760742 C-51.48212255 84.74579865 -51.52379369 86.19404279 -51.5637207 87.64233398 C-51.62129687 89.72005184 -51.68502653 91.79750198 -51.75 93.875 C-51.78665771 95.12659912 -51.82331543 96.37819824 -51.86108398 97.66772461 C-52.06640625 100.53515625 -52.06640625 100.53515625 -53.06640625 101.53515625 C-54.61596184 101.63415148 -56.16994298 101.66595149 -57.72265625 101.66796875 C-59.13224609 101.66990234 -59.13224609 101.66990234 -60.5703125 101.671875 C-62.05337891 101.66607422 -62.05337891 101.66607422 -63.56640625 101.66015625 C-64.55511719 101.66402344 -65.54382813 101.66789062 -66.5625 101.671875 C-67.50222656 101.67058594 -68.44195312 101.66929687 -69.41015625 101.66796875 C-70.27833984 101.66684082 -71.14652344 101.66571289 -72.04101562 101.66455078 C-74.06640625 101.53515625 -74.06640625 101.53515625 -75.06640625 100.53515625 C-75.16175838 99.16907299 -75.18829295 97.7981017 -75.18666077 96.42869568 C-75.18803543 95.54383484 -75.1894101 94.658974 -75.19082642 93.74729919 C-75.18723114 92.76906693 -75.18363586 91.79083466 -75.17993164 90.78295898 C-75.18007767 89.75868805 -75.18022369 88.73441711 -75.18037415 87.67910767 C-75.17967453 84.27563396 -75.17187988 80.87221421 -75.1640625 77.46875 C-75.16219849 75.11605357 -75.16077451 72.76335675 -75.15977478 70.41065979 C-75.15594824 64.2045892 -75.1461168 57.99854185 -75.1350708 51.79248047 C-75.12485959 45.46517247 -75.12027779 39.13786073 -75.11523438 32.81054688 C-75.10449465 20.38540643 -75.08741661 7.96028327 -75.06640625 -4.46484375 C-68.50925302 -6.73065263 -68.50925302 -6.73065263 -65.015625 -6.4765625 C-63.96858398 -6.40598633 -63.96858398 -6.40598633 -62.90039062 -6.33398438 C-62.19205078 -6.27404297 -61.48371094 -6.21410156 -60.75390625 -6.15234375 C-59.66239258 -6.07983398 -59.66239258 -6.07983398 -58.54882812 -6.00585938 C-53.21469442 -5.61313192 -53.21469442 -5.61313192 -52.06640625 -4.46484375 C-52.02547688 -2.13186942 -52.02398902 0.2022085 -52.06640625 2.53515625 C-51.38835937 2.06464844 -50.7103125 1.59414062 -50.01171875 1.109375 C-34.36561329 -9.35747948 -15.91833803 -11.28426609 0 0 Z M-48.62109375 17.5234375 C-52.47920651 22.89351337 -52.40357108 28.69136191 -52.37890625 35.03515625 C-52.39501953 35.86402344 -52.41113281 36.69289063 -52.42773438 37.546875 C-52.43290657 44.05349003 -51.08023407 48.19476175 -46.75390625 53.22265625 C-41.91117541 57.3896572 -37.18960133 59.22283674 -30.94140625 59.84765625 C-24.50388135 59.32850102 -19.105731 57.22736189 -14.12890625 53.09765625 C-8.39752668 45.97685133 -6.70077751 39.44605959 -7.25390625 30.34765625 C-8.16884299 22.31654486 -10.84740729 18.09961909 -17.03125 13.015625 C-27.31551845 5.53436254 -40.32269588 9.24433823 -48.62109375 17.5234375 Z " fill="#434343" transform="translate(527.06640625,108.46484375)"/>
<path d="M0 0 C9.51186725 7.47360998 14.53840567 16.33674191 17.3125 27.9375 C18.64671175 41.27961748 16.36706876 52.8983352 8.625 64.0625 C2.14758596 71.47427786 -6.56343664 76.63194805 -16.375 78.0625 C-29.32010251 78.78553473 -38.796479 76.97962147 -50.375 71.0625 C-50.36714478 72.40997314 -50.36714478 72.40997314 -50.35913086 73.78466797 C-50.34210275 77.11312499 -50.32955663 80.44153581 -50.32006836 83.77001953 C-50.31503526 85.2114332 -50.30820827 86.65284176 -50.29956055 88.09423828 C-50.28745017 90.16440085 -50.28176153 92.23449601 -50.27734375 94.3046875 C-50.26948853 96.17423096 -50.26948853 96.17423096 -50.26147461 98.08154297 C-50.375 101.0625 -50.375 101.0625 -51.375 103.0625 C-54.85414941 103.09137814 -58.33326831 103.10925687 -61.8125 103.125 C-63.30233398 103.13756836 -63.30233398 103.13756836 -64.82226562 103.15039062 C-65.76650391 103.15361328 -66.71074219 103.15683594 -67.68359375 103.16015625 C-68.55814209 103.16539307 -69.43269043 103.17062988 -70.33374023 103.17602539 C-72.375 103.0625 -72.375 103.0625 -73.375 102.0625 C-73.47465736 99.96742015 -73.50299821 97.86893264 -73.50439453 95.77148438 C-73.50614685 95.11233536 -73.50789917 94.45318634 -73.50970459 93.77406311 C-73.5141428 91.56809936 -73.5111677 89.36221476 -73.5078125 87.15625 C-73.50848752 85.60005681 -73.50945919 84.04386373 -73.51071167 82.4876709 C-73.51219327 79.19538386 -73.51002863 75.90312376 -73.50537109 72.61083984 C-73.4998221 68.49774906 -73.50294217 64.38472513 -73.50882339 60.27163696 C-73.53457673 38.85001865 -73.17003189 17.46973982 -72.375 -3.9375 C-69.79434292 -3.95295304 -67.2136858 -3.96835347 -64.63302612 -3.98336792 C-62.63627511 -3.99568838 -60.63954129 -4.01086842 -58.64282227 -4.02758789 C-57.36749634 -4.03133423 -57.36749634 -4.03133423 -56.06640625 -4.03515625 C-54.75458374 -4.04301147 -54.75458374 -4.04301147 -53.41625977 -4.05102539 C-51.375 -3.9375 -51.375 -3.9375 -50.375 -2.9375 C-50.33419217 -0.93791636 -50.33245644 1.06295254 -50.375 3.0625 C-49.76914062 2.66417969 -49.16328125 2.26585938 -48.5390625 1.85546875 C-33.02945437 -7.95137578 -16.17647041 -9.28649227 0 0 Z M-47.375 19.0625 C-51.93669686 26.70940246 -52.33789994 36.4604003 -50.6875 45.125 C-48.8071234 51.749903 -45.35937191 55.6962908 -39.375 59.0625 C-32.30219775 61.38887425 -23.07157089 61.44476513 -16.375 58.125 C-11.34879885 54.84296567 -7.62199964 49.84175045 -5.73828125 44.1328125 C-4.20644328 35.4029832 -5.0736415 26.87053786 -9.375 19.0625 C-12.89121987 14.81408907 -16.92290123 12.11098053 -22.375 11.0625 C-32.48351532 10.20716409 -40.10850392 11.79600392 -47.375 19.0625 Z " fill="#424343" transform="translate(622.375,106.9375)"/>
<path d="M0 0 C3.77043032 -0.14496508 7.54014742 -0.23395607 11.3125 -0.3125 C12.9202832 -0.3753418 12.9202832 -0.3753418 14.56054688 -0.43945312 C15.58857422 -0.45556641 16.61660156 -0.47167969 17.67578125 -0.48828125 C18.62364502 -0.51446533 19.57150879 -0.54064941 20.5480957 -0.56762695 C23 0 23 0 24.67724609 2.13867188 C26.06980282 5.15099465 27.32448335 8.16107797 28.48828125 11.26953125 C28.94485107 12.48165283 29.4014209 13.69377441 29.87182617 14.94262695 C30.35216195 16.23254324 30.83238471 17.52250162 31.3125 18.8125 C31.8046556 20.12410679 32.29725127 21.43554854 32.7902832 22.74682617 C33.75778011 25.3223908 34.72259108 27.89893195 35.68457031 30.4765625 C36.80414952 33.47540569 37.92771483 36.47267995 39.0546875 39.46875 C40.37418744 42.9775312 41.68920531 46.48795516 43 50 C43.99 50 44.98 50 46 50 C50.72897182 37.52933482 55.4343604 25.06002333 59.70336914 12.42285156 C59.9636792 11.66198242 60.22398926 10.90111328 60.4921875 10.1171875 C60.71245605 9.46347168 60.93272461 8.80975586 61.15966797 8.13623047 C62.25750534 5.34538881 63.65880322 2.68239356 65 0 C72.59 0 80.18 0 88 0 C87.16196172 5.02822969 85.96511944 8.8348006 83.89453125 13.37109375 C83.57877136 14.07753525 83.26301147 14.78397675 82.93768311 15.51182556 C81.90250402 17.82338668 80.85750659 20.13036728 79.8125 22.4375 C79.08717364 24.053263 78.36249079 25.66931502 77.63842773 27.28564453 C74.16307928 35.03330089 70.65457174 42.76588469 67.140625 50.49609375 C66.23993942 52.47860838 65.33945608 54.46121438 64.43930054 56.44396973 C63.85505926 57.73067923 63.27044452 59.01721922 62.68545532 60.30358887 C58.94819899 68.53010001 55.37258189 76.80426646 52 85.1875 C47.32241572 96.7649166 47.32241572 96.7649166 44.75 102.3125 C44.33234375 103.21613281 43.9146875 104.11976563 43.484375 105.05078125 C42 107 42 107 39.83984375 107.78515625 C36.1600154 108.06354767 32.50042296 108.14502492 28.8125 108.125 C28.08869141 108.12886719 27.36488281 108.13273437 26.61914062 108.13671875 C21.25347222 108.12673611 21.25347222 108.12673611 19 107 C19.60414348 103.3057638 20.65085094 100.30685733 22.28515625 96.9453125 C22.95708008 95.52798828 22.95708008 95.52798828 23.64257812 94.08203125 C24.58688084 92.11549162 25.5373808 90.15191546 26.49414062 88.19140625 C29.44745689 81.926796 31.481455 77.35617812 29.14282227 70.47949219 C27.92536507 67.38377041 26.60414837 64.35088753 25.25 61.3125 C24.75918945 60.18344238 24.26837891 59.05438477 23.76269531 57.89111328 C22.71891688 55.49029085 21.67028107 53.09157529 20.6171875 50.69482422 C19.00259719 47.01610483 17.41917563 43.32454004 15.84375 39.62890625 C10.33466901 26.67706648 10.33466901 26.67706648 4.6875 13.78515625 C4.18718262 12.66004639 4.18718262 12.66004639 3.67675781 11.51220703 C2.82641126 9.60855978 1.96827439 7.70839741 1.109375 5.80859375 C0 3 0 3 0 0 Z " fill="#424343" transform="translate(781,103)"/>
<path d="M0 0 C0.94810547 0.00515625 1.89621094 0.0103125 2.87304688 0.015625 C9.78237174 0.09487174 9.78237174 0.09487174 10.9375 1.25 C11.01063567 3.78049402 11.02997527 6.28304837 11 8.8125 C10.99548828 9.52341797 10.99097656 10.23433594 10.98632812 10.96679688 C10.97450864 12.72790013 10.95657263 14.48896036 10.9375 16.25 C9.98488281 16.21519531 9.03226563 16.18039063 8.05078125 16.14453125 C6.79652344 16.11746094 5.54226563 16.09039062 4.25 16.0625 C3.00863281 16.02769531 1.76726563 15.99289063 0.48828125 15.95703125 C-3.29190916 16.26892815 -5.11639608 16.90514178 -8.0625 19.25 C-9.11226964 22.39930893 -9.16381595 24.63814456 -9.125 27.9375 C-9.104375 29.690625 -9.08375 31.44375 -9.0625 33.25 C-2.1325 33.58 4.7975 33.91 11.9375 34.25 C11.958125 36.704375 11.97875 39.15875 12 41.6875 C12.009104 42.46150146 12.01820801 43.23550293 12.02758789 44.03295898 C12.03474913 45.77221717 11.98774702 47.51145304 11.9375 49.25 C10.35346476 50.83403524 8.6603362 50.46974935 6.46484375 50.56640625 C5.56572266 50.60830078 4.66660156 50.65019531 3.74023438 50.69335938 C2.32194336 50.75233398 2.32194336 50.75233398 0.875 50.8125 C-0.07439453 50.85568359 -1.02378906 50.89886719 -2.00195312 50.94335938 C-4.35531353 51.04979276 -6.70878354 51.15181008 -9.0625 51.25 C-10.40294362 53.93088724 -10.1604633 55.9519178 -10.12841797 58.953125 C-10.11865936 60.14776367 -10.10890076 61.34240234 -10.09884644 62.57324219 C-10.08427399 63.86907227 -10.06970154 65.16490234 -10.0546875 66.5 C-10.04520629 67.83755925 -10.03660176 69.17512498 -10.02883911 70.51269531 C-9.99519943 76.20000111 -9.95350252 81.88715023 -9.89111328 87.57421875 C-9.85352566 91.05187586 -9.83046185 94.52937234 -9.81680679 98.00720215 C-9.80480619 99.98048316 -9.77661389 101.95364401 -9.7482605 103.92675781 C-9.74307907 105.71871582 -9.74307907 105.71871582 -9.73779297 107.546875 C-9.72811493 108.60229492 -9.71843689 109.65771484 -9.70846558 110.74511719 C-9.82529694 111.57172852 -9.9421283 112.39833984 -10.0625 113.25 C-13.92542371 115.82528248 -17.15196878 115.54454471 -21.625 115.5 C-22.40552734 115.50773437 -23.18605469 115.51546875 -23.99023438 115.5234375 C-29.80914502 115.50335498 -29.80914502 115.50335498 -32.0625 113.25 C-32.30300903 110.6557312 -32.30300903 110.6557312 -32.28955078 107.33154297 C-32.28939972 106.09040741 -32.28924866 104.84927185 -32.28909302 103.57052612 C-32.278879 102.2110783 -32.268447 100.8516321 -32.2578125 99.4921875 C-32.25408284 98.10499271 -32.25123565 96.71779529 -32.24923706 95.33059692 C-32.24159684 91.67759949 -32.22194516 88.02476083 -32.1998291 84.37182617 C-32.17937896 80.64504138 -32.17023713 76.91823096 -32.16015625 73.19140625 C-32.13869948 65.87752337 -32.10351434 58.56380415 -32.0625 51.25 C-37.3425 50.92 -42.6225 50.59 -48.0625 50.25 C-48.0625 44.97 -48.0625 39.69 -48.0625 34.25 C-44.44921875 34.02213542 -40.8359375 33.79427083 -37.22265625 33.56640625 C-34.20226043 33.60080812 -34.20226043 33.60080812 -33.0625 32.25 C-32.84968207 30.46106509 -32.64241564 28.67123815 -32.46777344 26.87817383 C-31.611797 18.26754988 -30.49894813 11.93190871 -24.4375 5.4375 C-17.35544133 0.16479878 -8.4881564 -0.19168737 0 0 Z " fill="#424342" transform="translate(766.0625,68.75)"/>
<path d="M0 0 C1.40958984 -0.00193359 1.40958984 -0.00193359 2.84765625 -0.00390625 C3.83636719 -0.00003906 4.82507813 0.00382812 5.84375 0.0078125 C7.32681641 0.00201172 7.32681641 0.00201172 8.83984375 -0.00390625 C9.77957031 -0.00261719 10.71929688 -0.00132813 11.6875 0 C12.55568359 0.00112793 13.42386719 0.00225586 14.31835938 0.00341797 C16.34375 0.1328125 16.34375 0.1328125 17.34375 1.1328125 C17.44573212 2.54486138 17.47892966 3.96195326 17.48419189 5.37767029 C17.49275711 6.75111099 17.49275711 6.75111099 17.50149536 8.15229797 C17.50261322 9.16479111 17.50373108 10.17728424 17.50488281 11.22045898 C17.50984772 12.28053162 17.51481262 13.34060425 17.51992798 14.43280029 C17.53459134 17.95650876 17.54135809 21.48017223 17.546875 25.00390625 C17.55262245 27.44149274 17.55838023 29.87907921 17.56414795 32.31666565 C17.57466946 37.43385022 17.58050477 42.55101902 17.58398438 47.66821289 C17.58947536 54.24051781 17.61351163 60.81261619 17.64195633 67.38485622 C17.66053463 72.42129637 17.66578571 77.45768626 17.66732025 82.49415779 C17.67035756 84.91797072 17.67842203 87.34178254 17.69150543 89.76556206 C17.70846757 93.1491274 17.70670987 96.53218147 17.70019531 99.91577148 C17.7094101 100.92624039 17.71862488 101.93670929 17.7281189 102.97779846 C17.72254974 103.89624542 17.71698059 104.81469238 17.71124268 105.76097107 C17.71270924 106.56163215 17.7141758 107.36229322 17.7156868 108.18721676 C17.59294765 108.82926335 17.47020851 109.47130995 17.34375 110.1328125 C13.49432491 112.69909589 10.30077113 112.42745712 5.84375 112.3828125 C5.07160156 112.39054687 4.29945313 112.39828125 3.50390625 112.40625 C-0.39256468 112.39274403 -2.34612247 112.33956419 -5.65625 110.1328125 C-6.0281868 108.18721676 -6.0281868 108.18721676 -6.02374268 105.76097107 C-6.02931183 104.84252411 -6.03488098 103.92407715 -6.0406189 102.97779846 C-6.03140411 101.96732956 -6.02218933 100.95686066 -6.01269531 99.91577148 C-6.01576187 98.32303406 -6.01576187 98.32303406 -6.01889038 96.69812012 C-6.02190793 93.17487586 -6.00339295 89.65209517 -5.984375 86.12890625 C-5.98131922 83.69035457 -5.97944172 81.25180116 -5.97869873 78.81324768 C-5.97408965 73.69777774 -5.95963959 68.58246469 -5.9375 63.46704102 C-5.90920224 56.89361289 -5.89828775 50.32030846 -5.8938179 43.74682522 C-5.88967091 38.71042124 -5.87985972 33.67404255 -5.86794281 28.63765144 C-5.86222592 26.21302558 -5.85747195 23.78839726 -5.85367584 21.36376762 C-5.84683841 17.98262076 -5.83321844 14.60157414 -5.81738281 11.22045898 C-5.81626495 10.20796585 -5.81514709 9.19547272 -5.81399536 8.15229797 C-5.80543015 6.77885727 -5.80543015 6.77885727 -5.79669189 5.37767029 C-5.79371723 4.57738624 -5.79074257 3.77710218 -5.78767776 2.9525671 C-5.52020752 -0.75083763 -3.16051535 0.00410609 0 0 Z " fill="#424242" transform="translate(654.65625,71.8671875)"/>
<path d="M0 0 C1.60830154 4.96173522 2.24887551 9.1201163 2.24291992 14.38818359 C2.24481827 15.08985657 2.24671661 15.79152954 2.24867249 16.51446533 C2.25234593 18.80924021 2.24173072 21.1036913 2.23046875 23.3984375 C2.22927553 25.00029463 2.22882409 26.60215246 2.2290802 28.20401001 C2.22752161 31.54767282 2.21927559 34.89122762 2.20581055 38.23486328 C2.18873888 42.52915504 2.18499889 46.82332926 2.18575573 51.11765099 C2.18548457 54.41864146 2.18001344 57.71960603 2.17275429 61.02058792 C2.16956539 62.60509673 2.1675997 64.18960848 2.16686058 65.77412033 C2.16470401 67.97885966 2.15597723 70.18347146 2.14526367 72.38818359 C2.14145187 73.64392181 2.13764008 74.89966003 2.13371277 76.19345093 C2 79 2 79 1 80 C-0.4887186 80.08669432 -1.981445 80.10703494 -3.47265625 80.09765625 C-4.37177734 80.09443359 -5.27089844 80.09121094 -6.19726562 80.08789062 C-7.61555664 80.07532227 -7.61555664 80.07532227 -9.0625 80.0625 C-10.01189453 80.05798828 -10.96128906 80.05347656 -11.93945312 80.04882812 C-14.29303065 80.0370011 -16.64648477 80.02052025 -19 80 C-21.06421835 75.75317141 -21.21519244 72.33179639 -21.13525391 67.6394043 C-21.12106163 66.55566277 -21.12106163 66.55566277 -21.10658264 65.45002747 C-21.07304646 63.07449247 -21.02489365 60.69949489 -20.9765625 58.32421875 C-20.95038072 56.67228071 -20.92511489 55.02032792 -20.90072632 53.36836243 C-20.8342188 49.02974722 -20.75529524 44.69144386 -20.67376709 40.35308838 C-20.59270671 35.92236256 -20.52341402 31.49145434 -20.453125 27.06054688 C-20.31358713 18.3734765 -20.16092938 9.6867003 -20 1 C-13.63772801 -2.35701111 -6.90366979 -1.17509273 0 0 Z " fill="#424343" transform="translate(706,103)"/>
<path d="M0 0 C0.33 0 0.66 0 1 0 C1.042721 1.66611905 1.04063832 3.33382885 1 5 C0.67 5.33 0.34 5.66 0 6 C-0.34833357 7.96612425 -0.63748459 9.9427766 -0.90234375 11.921875 C-1.15467773 13.80519531 -1.15467773 13.80519531 -1.41210938 15.7265625 C-1.49871826 16.39075195 -1.58532715 17.05494141 -1.67456055 17.73925781 C-1.92747205 19.67331462 -2.18914219 21.60621993 -2.45117188 23.5390625 C-6.05436915 50.7753978 -6 76.13431291 -6 104 C56.37 104.495 56.37 104.495 120 105 C116.4201217 89.5089675 116.4201217 89.5089675 111 75 C110.55914062 73.99066406 110.11828125 72.98132813 109.6640625 71.94140625 C106.65195148 65.17610929 103.26145342 58.79038466 99.41796875 52.4609375 C98 50 98 50 97 47 C94.99983534 45.79117904 94.99983534 45.79117904 93 45 C93.33 43.68 93.66 42.36 94 41 C108.27566472 58.51553189 122 83.72945099 122 107 C105.19776179 107.02332875 88.39552861 107.04097906 71.59327793 107.05181217 C63.79224164 107.05697518 55.99121539 107.06401797 48.19018555 107.07543945 C41.39323687 107.08538615 34.59629546 107.09185339 27.79933971 107.09408849 C24.19821869 107.09539563 20.59711848 107.09848164 16.9960041 107.10573006 C12.98243398 107.11374364 8.96890036 107.11399115 4.95532227 107.11352539 C3.15134727 107.1189183 3.15134727 107.1189183 1.31092834 107.12442017 C0.22412781 107.1230455 -0.86267273 107.12167084 -1.98240662 107.12025452 C-2.93277518 107.12117631 -3.88314375 107.1220981 -4.86231136 107.12304783 C-7 107 -7 107 -8 106 C-12.27620096 78.60063826 -8.10702427 49.48816071 -4.5 22.25 C-4.3924942 21.42833344 -4.2849884 20.60666687 -4.17422485 19.76010132 C-3.86356558 17.40663537 -3.54300997 15.05475155 -3.21875 12.703125 C-3.12603317 11.99897964 -3.03331635 11.29483429 -2.93778992 10.5693512 C-2.40191447 6.7851112 -1.59221592 3.47897495 0 0 Z " fill="#462997" transform="translate(42,33)"/>
<path d="M0 0 C3.57339883 1.92356873 5.69607513 4.0882254 7 8 C7.78228195 14.70527386 7.78228195 14.70527386 5.765625 18.04296875 C2.31741553 22.18252715 0.18113106 23.79804342 -5.375 24.3125 C-9.65664327 23.94339282 -11.07571696 23.09138492 -14 20 C-16.48754936 15.81639426 -16.06314897 12.66149931 -15 8 C-11.87708243 0.47660767 -7.83463897 -1.33469148 0 0 Z " fill="#1A1617" transform="translate(872,160)"/>
<path d="M0 0 C5.61971831 2.85915493 5.61971831 2.85915493 7 7 C7.42372881 14.76836158 7.42372881 14.76836158 5 18 C1.15174933 21.36721934 -2.64389457 21.50596583 -7.5546875 21.359375 C-11.14763347 20.83133821 -13.32721356 19.3986545 -16 17 C-17.21762731 13.34711807 -17.39075851 10.84245864 -17 7 C-12.74306235 -0.13195897 -7.792936 -0.88311985 0 0 Z " fill="#434443" transform="translate(703,70)"/>
<path d="M0 0 C0.495 1.485 0.495 1.485 1 3 C0.56429687 3.37769531 0.12859375 3.75539062 -0.3203125 4.14453125 C-5.65116666 9.07153282 -8.80374242 14.52552952 -12 21 C-12.66 21 -13.32 21 -14 21 C-14.268125 21.86625 -14.53625 22.7325 -14.8125 23.625 C-16 27 -16 27 -17.5625 29.9375 C-19.16630454 32.91277868 -19.16630454 32.91277868 -19.3125 36.125 C-20.1825696 41.02902868 -22.2709885 44.77562775 -24.625 49.1328125 C-25.92077275 51.83479318 -26.44995739 54.08280975 -27 57 C-27.66 57.99 -28.32 58.98 -29 60 C-28.01 60.33 -27.02 60.66 -26 61 C-27.15173355 63.46800047 -28.04783565 65.04783565 -30 67 C-30.99 66.67 -31.98 66.34 -33 66 C-33 67.65 -33 69.3 -33 71 C-11.36488487 70.67779261 9.72189592 68.99370549 28.796875 57.8125 C32 56 32 56 34 56 C34 55.34 34 54.68 34 54 C40.45 49.90673077 40.45 49.90673077 43.234375 50.37890625 C43.81703125 50.58386719 44.3996875 50.78882813 45 51 C18.3836062 68.28045803 -6.36823892 73.4843497 -38 73 C-37.07967307 70.23901922 -35.97573275 67.76471511 -34.734375 65.13671875 C-32.34777333 59.92779796 -30.36849781 54.64423699 -28.46240234 49.24389648 C-22.74130551 33.05178693 -16.36379744 19.04366315 -5 6 C-3.99781119 4.79348144 -2.99747473 3.58541877 -2 2.375 C-1.34 1.59125 -0.68 0.8075 0 0 Z " fill="#3B2585" transform="translate(185,176)"/>
<path d="M0 0 C16.62066605 15.68757603 25.26893197 41.03826623 29 63 C29 63.99 29 64.98 29 66 C-13.24 66 -55.48 66 -99 66 C-99 65.67 -99 65.34 -99 65 C-57.42 65 -15.84 65 27 65 C22.31553046 45.32522793 16.78181446 28.52810946 6.41796875 11.4609375 C5 9 5 9 4 6 C1.99983534 4.79117904 1.99983534 4.79117904 0 4 C0 2.68 0 1.36 0 0 Z " fill="#573689" transform="translate(135,74)"/>
<path d="M0 0 C0.99 0 1.98 0 3 0 C4.63225228 3.26450455 4.68263934 6.48567153 4 10 C1.66309524 13.87512056 -0.67500549 16.55833516 -5 18 C-9.05757152 18.37570107 -11.28029125 18.43182525 -14.8125 16.3125 C-17.11978947 13.87336542 -18.18841256 12.24634975 -19 9 C-18.625 6.6875 -18.625 6.6875 -18 5 C-15 9.75 -15 9.75 -15 12 C-11.7 12.33 -8.4 12.66 -5 13 C-7.97 12.505 -7.97 12.505 -11 12 C-10.67 11.34 -10.34 10.68 -10 10 C-9.34 10 -8.68 10 -8 10 C-8 9.01 -8 8.02 -8 7 C-8.66 6.67 -9.32 6.34 -10 6 C-9.34 5.34 -8.68 4.68 -8 4 C-7.67 3.01 -7.34 2.02 -7 1 C-6.34 1 -5.68 1 -5 1 C-5 1.66 -5 2.32 -5 3 C-3.35 2.67 -1.7 2.34 0 2 C0 1.34 0 0.68 0 0 Z " fill="#1E1B1B" transform="translate(875,166)"/>
<path d="M0 0 C0.495 1.485 0.495 1.485 1 3 C0.56429687 3.37769531 0.12859375 3.75539062 -0.3203125 4.14453125 C-5.65116666 9.07153282 -8.80374242 14.52552952 -12 21 C-12.66 21 -13.32 21 -14 21 C-14.268125 21.86625 -14.53625 22.7325 -14.8125 23.625 C-16 27 -16 27 -17.5625 29.9375 C-19.16630454 32.91277868 -19.16630454 32.91277868 -19.3125 36.125 C-20.34786682 41.96070389 -23.21443687 46.81220812 -26 52 C-26.66 52 -27.32 52 -28 52 C-28.99 55.63 -29.98 59.26 -31 63 C-31.66 62.34 -32.32 61.68 -33 61 C-31.45294704 56.83551325 -29.88960511 52.67758389 -28.3125 48.52441406 C-27.78091191 47.11813355 -27.25339907 45.7103041 -26.73046875 44.30078125 C-21.45268964 30.09137596 -14.95528726 17.58973741 -5 6 C-3.99876014 4.79269383 -2.99856011 3.58452352 -2 2.375 C-1.34 1.59125 -0.68 0.8075 0 0 Z " fill="#301D6B" transform="translate(185,176)"/>
<path d="M0 0 C1.01331291 3.17540309 0.94735171 5.3164901 0.24316406 8.55883789 C0.05256409 9.45820572 -0.13803589 10.35757355 -0.33441162 11.28419495 C-0.54889954 12.25388718 -0.76338745 13.22357941 -0.984375 14.22265625 C-1.20063538 15.23734482 -1.41689575 16.25203339 -1.63970947 17.29747009 C-2.33482619 20.55432973 -3.04151393 23.80852469 -3.75 27.0625 C-4.66787301 31.30203057 -5.57943857 35.54284548 -6.484375 39.78515625 C-6.70581177 40.81951813 -6.92724854 41.85388 -7.15539551 42.91958618 C-8.70933152 50.29888895 -10.00336102 57.68996824 -11.02484131 65.16188049 C-11.5662596 68.97076193 -12.24856431 71.49712862 -14 75 C-17.3 75 -20.6 75 -24 75 C-24 74.67 -24 74.34 -24 74 C-21.03 74 -18.06 74 -15 74 C-14.86851562 73.21109375 -14.73703125 72.4221875 -14.6015625 71.609375 C-14.40304688 70.41828125 -14.20453125 69.2271875 -14 68 C-13.88624023 67.30583984 -13.77248047 66.61167969 -13.65527344 65.89648438 C-10.9327791 49.36655713 -7.60639328 32.97811017 -4.16171265 16.58682251 C-3.19379551 11.97283127 -2.28013054 7.35066688 -1.41650391 2.71606445 C-1 1 -1 1 0 0 Z " fill="#CDB062" transform="translate(161,174)"/>
<path d="M0 0 C0.66 0.33 1.32 0.66 2 1 C1.83923477 1.49348938 1.67846954 1.98697876 1.51283264 2.49542236 C0.79295034 6.01119136 0.82168183 9.49927462 0.79467773 13.07324219 C0.78477814 13.88337265 0.77487854 14.69350311 0.76467896 15.52818298 C0.73313785 18.20105078 0.70833577 20.87393634 0.68359375 23.546875 C0.66301784 25.40204322 0.6420212 27.25720683 0.62062073 29.11236572 C0.56546584 33.99164077 0.51602754 38.87095766 0.46777344 43.75030518 C0.41751033 48.73071002 0.36184938 53.71105421 0.30664062 58.69140625 C0.19913958 68.46088566 0.09767674 78.23041777 0 88 C-0.33 88 -0.66 88 -1 88 C-1.02312255 76.6738837 -1.04091464 65.34777297 -1.05181217 54.02163792 C-1.05704119 48.76303336 -1.06413918 43.5044449 -1.07543945 38.24584961 C-1.08626766 33.17546873 -1.09227669 28.10510338 -1.09487724 23.03471184 C-1.09673161 21.09573052 -1.10035245 19.15675009 -1.10573006 17.21777534 C-1.1129396 14.5117824 -1.11399098 11.80585444 -1.11352539 9.09985352 C-1.11712067 8.28993454 -1.12071594 7.48001556 -1.12442017 6.64555359 C-1.11405216 1.11405216 -1.11405216 1.11405216 0 0 Z " fill="#575556" transform="translate(650,72)"/>
<path d="M0 0 C5.56395435 0.53107666 10.46134461 1.59325869 15.6875 3.625 C16.37666504 3.89006348 17.06583008 4.15512695 17.77587891 4.42822266 C28.41061585 8.63162755 38.76790339 13.90862299 47 22 C47.495 23.485 47.495 23.485 48 25 C46 25 46 25 43.703125 22.7421875 C42.81109375 21.83726563 41.9190625 20.93234375 41 20 C28.97186594 10.47461433 14.50303319 5.49901415 0 1 C0 0.67 0 0.34 0 0 Z " fill="#533F94" transform="translate(73,36)"/>
<path d="M0 0 C10.55473657 9.96218996 20.50912031 26.40801505 22 41 C20 40 20 40 19.04296875 37.3203125 C18.69878906 36.22460938 18.35460937 35.12890625 18 34 C14.70457046 26.14402246 10.83773294 18.73940126 6.41796875 11.4609375 C5 9 5 9 4 6 C1.99983534 4.79117904 1.99983534 4.79117904 0 4 C0 2.68 0 1.36 0 0 Z " fill="#533C97" transform="translate(135,74)"/>
<path d="M0 0 C0.66 0.33 1.32 0.66 2 1 C2.625 4.0625 2.625 4.0625 3 7 C4.32 7 5.64 7 7 7 C7 7.99 7 8.98 7 10 C6.01 10.495 6.01 10.495 5 11 C6.98 11.66 8.96 12.32 11 13 C11 13.33 11 13.66 11 14 C2.9138756 14.31100478 2.9138756 14.31100478 0 12 C-1.51572997 9.72902742 -2.73871305 7.43248197 -4 5 C-3.01 4.67 -2.02 4.34 -1 4 C-0.26676204 1.98491642 -0.26676204 1.98491642 0 0 Z " fill="#181315" transform="translate(860,166)"/>
<path d="M0 0 C17.60311451 -0.29327244 33.14733108 0.79512774 50 6 C48.19921875 7.078125 48.19921875 7.078125 46 8 C44.29600195 7.33176547 42.59573013 6.64704846 40.94238281 5.86181641 C32.72326168 2.21507211 23.26915948 2.38634505 14.4375 1.875 C13.03316264 1.7884146 11.62886515 1.70117998 10.22460938 1.61328125 C6.81674238 1.40248535 3.40861664 1.19823839 0 1 C0 0.67 0 0.34 0 0 Z " fill="#B76046" transform="translate(151,35)"/>
<path d="M0 0 C0.99 0 1.98 0 3 0 C4.6124054 3.22481079 4.60679502 6.51415624 4 10 C2.56130936 12.39446415 0.99797988 14.00202012 -1 16 C-1.99 15.67 -2.98 15.34 -4 15 C-3.525625 14.46375 -3.05125 13.9275 -2.5625 13.375 C-0.68762521 10.52519032 -0.28764178 8.37979093 0 5 C-0.33 4.01 -0.66 3.02 -1 2 C-0.67 1.34 -0.34 0.68 0 0 Z " fill="#2B2526" transform="translate(875,166)"/>
<path d="M0 0 C1.12315172 3.41833166 0.88163997 5.97330539 0.29296875 9.5 C0.11830078 10.551875 -0.05636719 11.60375 -0.23632812 12.6875 C-0.42646484 13.780625 -0.61660156 14.87375 -0.8125 16 C-0.99103516 17.093125 -1.16957031 18.18625 -1.35351562 19.3125 C-2.15559745 24.0381229 -2.83496034 27.66992067 -5 32 C-8.3 32 -11.6 32 -15 32 C-15 31.67 -15 31.34 -15 31 C-12.03 31 -9.06 31 -6 31 C-5.87625 30.25234375 -5.7525 29.5046875 -5.625 28.734375 C-4.76084137 23.57102716 -3.88455281 18.40989137 -3 13.25 C-2.82210937 12.19683594 -2.64421875 11.14367187 -2.4609375 10.05859375 C-2.28820312 9.05441406 -2.11546875 8.05023438 -1.9375 7.015625 C-1.78152344 6.10071289 -1.62554687 5.18580078 -1.46484375 4.24316406 C-1 2 -1 2 0 0 Z " fill="#B79F5E" transform="translate(152,217)"/>
<path d="M0 0 C2.04565773 3.06848659 2.78134287 5.32993651 3.6875 8.875 C3.95949219 9.90367188 4.23148437 10.93234375 4.51171875 11.9921875 C5.00575258 15.0354359 4.81054977 17.05155721 4 20 C1.64558284 19.85758352 -0.70847484 19.71115192 -3.0625 19.5625 C-4.37347656 19.48128906 -5.68445313 19.40007812 -7.03515625 19.31640625 C-10.73663238 19.02101751 -14.33370448 18.56734612 -18 18 C-18 17.67 -18 17.34 -18 17 C-10.93391809 16.86205046 -4.02639415 17.25194283 3 18 C2.7834375 17.03578125 2.566875 16.0715625 2.34375 15.078125 C2.0653125 13.81484375 1.786875 12.5515625 1.5 11.25 C1.2215625 9.99703125 0.943125 8.7440625 0.65625 7.453125 C0 4 0 4 0 0 Z " fill="#B95A46" transform="translate(269,113)"/>
<path d="M0 0 C0.66 0 1.32 0 2 0 C2.33 0.99 2.66 1.98 3 3 C0.52192953 5.47807047 -0.23592468 5.25650238 -3.6484375 5.265625 C-4.57140625 5.26820313 -5.494375 5.27078125 -6.4453125 5.2734375 C-7.89550781 5.26183594 -7.89550781 5.26183594 -9.375 5.25 C-10.3340625 5.25773438 -11.293125 5.26546875 -12.28125 5.2734375 C-13.20679688 5.27085937 -14.13234375 5.26828125 -15.0859375 5.265625 C-16.3551001 5.26224121 -16.3551001 5.26224121 -17.64990234 5.25878906 C-20 5 -20 5 -24 3 C-16.08 3 -8.16 3 0 3 C0 2.01 0 1.02 0 0 Z " fill="#2D2B2C" transform="translate(442,179)"/>
<path d="M0 0 C0 0.66 0 1.32 0 2 C-7.90281872 5.05915564 -15.55910591 5.81857537 -24 5 C-25.35203577 4.37212939 -26.6901012 3.71160899 -28 3 C-27.37955811 2.98018066 -26.75911621 2.96036133 -26.11987305 2.93994141 C-23.30865463 2.84468155 -20.49817834 2.73500698 -17.6875 2.625 C-16.71103516 2.5940625 -15.73457031 2.563125 -14.72851562 2.53125 C-13.32182617 2.47324219 -13.32182617 2.47324219 -11.88671875 2.4140625 C-11.02264404 2.3826416 -10.15856934 2.3512207 -9.26831055 2.31884766 C-5.42581887 1.77872344 -4.22061507 0 0 0 Z " fill="#4D4C4D" transform="translate(519,180)"/>
<path d="M0 0 C2.97 0.99 5.94 1.98 9 3 C8.34 3.66 7.68 4.32 7 5 C10.82810929 9.30943576 10.82810929 9.30943576 15.75 12 C18 13 18 13 19.3125 16.125 C19.6528125 17.548125 19.6528125 17.548125 20 19 C14.67796137 15.31551171 10.06249972 11.25541515 5.5 6.6875 C4.95956055 6.14770508 4.41912109 5.60791016 3.86230469 5.05175781 C0 1.13480959 0 1.13480959 0 0 Z " fill="#DEBF6A" transform="translate(60,208)"/>
<path d="M0 0 C1.9375 0.8125 1.9375 0.8125 4 2 C5 5 5 5 5 9 C4.34 9 3.68 9 3 9 C3 10.98 3 12.96 3 15 C2.67 15 2.34 15 2 15 C1.67 11.7 1.34 8.4 1 5 C0.01 6.485 0.01 6.485 -1 8 C-1.66 8 -2.32 8 -3 8 C-1.125 1.125 -1.125 1.125 0 0 Z " fill="#211D1F" transform="translate(860,162)"/>
<path d="M0 0 C-2.01714277 1.27701821 -4.0383933 2.54660194 -6.0625 3.8125 C-6.62388672 4.16892578 -7.18527344 4.52535156 -7.76367188 4.89257812 C-11.71651816 7.35463667 -15.68087454 9.25584361 -20 11 C-19 8 -19 8 -16.0625 6.3125 C-13 5 -13 5 -11 5 C-11 4.34 -11 3.68 -11 3 C-4.03571429 -1.41964286 -4.03571429 -1.41964286 0 0 Z " fill="#3F2C86" transform="translate(230,227)"/>
<path d="M0 0 C0.33 0.99 0.66 1.98 1 3 C0.56429687 3.37769531 0.12859375 3.75539062 -0.3203125 4.14453125 C-5.65116666 9.07153282 -8.80374242 14.52552952 -12 21 C-12.33 21 -12.66 21 -13 21 C-13.33960274 17.77089598 -13.19925948 16.3119919 -11.42578125 13.53515625 C-10.37970703 12.31119141 -10.37970703 12.31119141 -9.3125 11.0625 C-8.58675781 10.20011719 -7.86101562 9.33773437 -7.11328125 8.44921875 C-6.41589844 7.64097656 -5.71851563 6.83273438 -5 6 C-3.99800428 4.79332107 -2.9975857 3.58532732 -2 2.375 C-1.34 1.59125 -0.68 0.8075 0 0 Z " fill="#3B2680" transform="translate(185,176)"/>
<path d="M0 0 C-8.15355451 3.4175537 -16.29623842 6.35167701 -25 8 C-21.29405078 4.72772569 -17.08984574 3.35527712 -12.5 1.75 C-11.74074219 1.46898437 -10.98148438 1.18796875 -10.19921875 0.8984375 C-9.46316406 0.63804687 -8.72710937 0.37765625 -7.96875 0.109375 C-7.30294922 -0.12813477 -6.63714844 -0.36564453 -5.95117188 -0.61035156 C-3.6642285 -1.06705347 -2.19719291 -0.71402646 0 0 Z " fill="#463385" transform="translate(239,148)"/>
<path d="M0 0 C3.70605319 3.49835844 6.52199492 7.00850064 9.3125 11.3125 C10.00988281 12.38113281 10.70726562 13.44976562 11.42578125 14.55078125 C11.94527344 15.35902344 12.46476563 16.16726562 13 17 C12.01 17.33 11.02 17.66 10 18 C9.18432826 16.56429734 8.37257907 15.12636566 7.5625 13.6875 C7.11003906 12.88699219 6.65757812 12.08648437 6.19140625 11.26171875 C5 9 5 9 4 6 C1.99983534 4.79117904 1.99983534 4.79117904 0 4 C0 2.68 0 1.36 0 0 Z " fill="#5A468F" transform="translate(135,74)"/>
<path d="M0 0 C1 2 1 2 0.47094727 3.87939453 C0.17244873 4.62302246 -0.1260498 5.36665039 -0.43359375 6.1328125 C-0.75263672 6.93847656 -1.07167969 7.74414062 -1.40039062 8.57421875 C-1.91375977 9.83685547 -1.91375977 9.83685547 -2.4375 11.125 C-2.77587891 11.97449219 -3.11425781 12.82398438 -3.46289062 13.69921875 C-4.30176957 15.80232371 -5.14771125 17.90230155 -6 20 C-6.66 19.67 -7.32 19.34 -8 19 C-6.21440518 12.04634211 -3.7441867 6.12685097 0 0 Z " fill="#4D4D4D" transform="translate(839,169)"/>
<path d="M0 0 C3.3 0 6.6 0 10 0 C10.33 1.32 10.66 2.64 11 4 C9.35 4 7.7 4 6 4 C5.67 4.66 5.34 5.32 5 6 C3.0625 5.25 3.0625 5.25 1 4 C0.67 2.68 0.34 1.36 0 0 Z " fill="#181618" transform="translate(861,161)"/>
<path d="M0 0 C0.66 0.99 1.32 1.98 2 3 C0.515 5.475 0.515 5.475 -1 8 C-0.01 8.33 0.98 8.66 2 9 C0.84826645 11.46800047 -0.04783565 13.04783565 -2 15 C-2.33 14.67 -2.66 14.34 -3 14 C-2.86759248 9.07036605 -2.16137791 4.46684769 0 0 Z " fill="#402895" transform="translate(157,228)"/>
<path d="M0 0 C3.28670403 3.28670403 5 7.35868331 5 12 C5.639375 12.185625 6.27875 12.37125 6.9375 12.5625 C9 14 9 14 9.75 17.625 C9.87375 19.295625 9.87375 19.295625 10 21 C7.08735989 18.4623405 5.5941888 15.62155803 3.875 12.1875 C3.35679688 11.17042969 2.83859375 10.15335938 2.3046875 9.10546875 C1.01113614 6.02650667 0.40489617 3.30336021 0 0 Z " fill="#CFB35F" transform="translate(43,176)"/>
<path d="M0 0 C1.32 0 2.64 0 4 0 C4 0.99 4 1.98 4 3 C3.01 3.495 3.01 3.495 2 4 C3.98 4.66 5.96 5.32 8 6 C8 6.33 8 6.66 8 7 C0.57142857 7.28571429 0.57142857 7.28571429 -3 5 C-2.67 4.01 -2.34 3.02 -2 2 C-1.67 2.33 -1.34 2.66 -1 3 C-0.67 2.01 -0.34 1.02 0 0 Z " fill="#0C0C0C" transform="translate(863,173)"/>
<path d="M0 0 C1.51270605 0.14129118 3.02928128 0.24462817 4.546875 0.31640625 C5.39121094 0.35830078 6.23554688 0.40019531 7.10546875 0.44335938 C8.41451172 0.50233398 8.41451172 0.50233398 9.75 0.5625 C10.63816406 0.60568359 11.52632813 0.64886719 12.44140625 0.69335938 C14.62745963 0.79913615 16.81362089 0.90122546 19 1 C19 1.33 19 1.66 19 2 C6.625 2.495 6.625 2.495 -6 3 C-6 2.01 -6 1.02 -6 0 C-3.45107555 -1.27446222 -2.6941744 -0.72654974 0 0 Z " fill="#4F4D4F" transform="translate(326,180)"/>
<path d="M0 0 C1.15518918 0.90484792 2.29885406 1.8244206 3.4375 2.75 C4.07558594 3.26046875 4.71367187 3.7709375 5.37109375 4.296875 C7.21319631 6.22291029 7.4950364 7.43310169 8 10 C9.47890069 11.73026102 9.47890069 11.73026102 11 13 C10.67 13.99 10.34 14.98 10 16 C8.70161824 14.2758698 7.41156253 12.54546768 6.125 10.8125 C5.04605469 9.36810547 5.04605469 9.36810547 3.9453125 7.89453125 C2.19403401 5.28871325 1.02540206 2.95207856 0 0 Z " fill="#C45C45" transform="translate(161,70)"/>
<path d="M0 0 C0.66 0.33 1.32 0.66 2 1 C0.35433477 6.68502535 -2.29032784 11.76681636 -5 17 C-6.21527577 13.35417269 -5.65504434 12.51096991 -4.1875 9.0625 C-3.83042969 8.20785156 -3.47335938 7.35320312 -3.10546875 6.47265625 C-2.12595669 4.28173351 -1.09483961 2.13518494 0 0 Z " fill="#3D258F" transform="translate(164,211)"/>
<path d="M0 0 C3.40312738 1.05875074 6.01353231 2.00902154 9 4 C9.309375 4.66 9.61875 5.32 9.9375 6 C11.24187242 8.45528927 12.46627297 8.98650919 15 10 C11.0032716 10 9.5590849 8.48575951 6.375 6.125 C5.39273438 5.40570313 4.41046875 4.68640625 3.3984375 3.9453125 C1 2 1 2 0 0 Z " fill="#C85F4A" transform="translate(189,103)"/>
<path d="M0 0 C0.66 0.33 1.32 0.66 2 1 C0.06852571 2.9853759 -1.86966609 4.96329392 -3.8125 6.9375 C-4.35970703 7.50146484 -4.90691406 8.06542969 -5.47070312 8.64648438 C-9.66015625 12.88671875 -9.66015625 12.88671875 -13 14 C-11.45493286 10.14174662 -9.04184365 8.01484232 -5.9375 5.3125 C-5.03902344 4.52488281 -4.14054688 3.73726562 -3.21484375 2.92578125 C-2.48394531 2.29027344 -1.75304687 1.65476563 -1 1 C-0.67 0.67 -0.34 0.34 0 0 Z " fill="#47328B" transform="translate(245,210)"/>
<path d="M0 0 C0.66 0.33 1.32 0.66 2 1 C1.25234375 1.54269531 0.5046875 2.08539063 -0.265625 2.64453125 C-1.25046875 3.35996094 -2.2353125 4.07539063 -3.25 4.8125 C-4.22453125 5.52019531 -5.1990625 6.22789062 -6.203125 6.95703125 C-8.48189009 8.62154821 -10.74765822 10.30001823 -13 12 C-13.66 11.67 -14.32 11.34 -15 11 C-13.44066679 9.72528295 -11.87738294 8.45539786 -10.3125 7.1875 C-9.44238281 6.47980469 -8.57226562 5.77210938 -7.67578125 5.04296875 C-5.18274861 3.13952923 -2.79171721 1.43152791 0 0 Z " fill="#3E2C81" transform="translate(207,159)"/>
<path d="M0 0 C0.66 0.33 1.32 0.66 2 1 C2 1.99 2 2.98 2 4 C1.34 4 0.68 4 0 4 C-0.33 6.31 -0.66 8.62 -1 11 C-2.32 11 -3.64 11 -5 11 C-4.14254495 8.42763485 -3.1606471 6.21933783 -1.9375 3.8125 C-1.57527344 3.09707031 -1.21304688 2.38164062 -0.83984375 1.64453125 C-0.42412109 0.83048828 -0.42412109 0.83048828 0 0 Z " fill="#48346B" transform="translate(152,238)"/>
<path d="M0 0 C0.33 0 0.66 0 1 0 C1.08117951 2.41734542 1.14056926 4.83194949 1.1875 7.25 C1.21263672 7.93191406 1.23777344 8.61382812 1.26367188 9.31640625 C1.31137459 12.59199289 1.21085076 14.65348556 -0.51171875 17.484375 C-1.00285156 17.98453125 -1.49398437 18.4846875 -2 19 C-1.85820962 16.77057252 -1.71140302 14.54146372 -1.5625 12.3125 C-1.48128906 11.07113281 -1.40007813 9.82976562 -1.31640625 8.55078125 C-1.05508683 5.61819663 -0.65201621 2.86558383 0 0 Z " fill="#5A3EAC" transform="translate(39,55)"/>
<path d="M0 0 C8.19256018 -0.63019694 8.19256018 -0.63019694 11.5625 2 C12.036875 2.66 12.51125 3.32 13 4 C11.68 4.33 10.36 4.66 9 5 C8.67 3.68 8.34 2.36 8 1 C5.36 1 2.72 1 0 1 C0 0.67 0 0.34 0 0 Z " fill="#212020" transform="translate(863,160)"/>
<path d="M0 0 C0.66 0 1.32 0 2 0 C2 1.32 2 2.64 2 4 C2.66 4.33 3.32 4.66 4 5 C2.625 6.5 2.625 6.5 1 8 C0.34 8 -0.32 8 -1 8 C-1 7.34 -1 6.68 -1 6 C-1.66 5.67 -2.32 5.34 -3 5 C-2.34 4.34 -1.68 3.68 -1 3 C-0.67 2.01 -0.34 1.02 0 0 Z " fill="#252422" transform="translate(868,167)"/>
<path d="M0 0 C0.99 0.33 1.98 0.66 3 1 C3.33 2.65 3.66 4.3 4 6 C2.35 6.33 0.7 6.66 -1 7 C-0.67 4.69 -0.34 2.38 0 0 Z " fill="#5439B3" transform="translate(266,163)"/>
<path d="M0 0 C0.66 0.33 1.32 0.66 2 1 C1.34 5.95 0.68 10.9 0 16 C-0.33 16 -0.66 16 -1 16 C-1.02685095 13.52076199 -1.04676547 11.0418116 -1.0625 8.5625 C-1.07506836 7.50192383 -1.07506836 7.50192383 -1.08789062 6.41992188 C-1.09653588 4.61306441 -1.05220011 2.80612397 -1 1 C-0.67 0.67 -0.34 0.34 0 0 Z " fill="#4F4E4E" transform="translate(650,72)"/>
<path d="M0 0 C0.66 1.32 1.32 2.64 2 4 C0.68 5.32 -0.64 6.64 -2 8 C-2.99 7.67 -3.98 7.34 -5 7 C-3.35 4.69 -1.7 2.38 0 0 Z " fill="#322D2E" transform="translate(876,174)"/>
<path d="M0 0 C1.670625 0.061875 1.670625 0.061875 3.375 0.125 C3.705 0.785 4.035 1.445 4.375 2.125 C2.725 2.125 1.075 2.125 -0.625 2.125 C-0.955 2.785 -1.285 3.445 -1.625 4.125 C-2.945 3.465 -4.265 2.805 -5.625 2.125 C-3.625 0.125 -3.625 0.125 0 0 Z " fill="#0D090A" transform="translate(867.625,162.875)"/>
<path d="M0 0 C2.5 2.3125 2.5 2.3125 5 5 C5 5.99 5 6.98 5 8 C4.67 7.34 4.34 6.68 4 6 C1.98330173 4.86649466 1.98330173 4.86649466 0 4 C0 2.68 0 1.36 0 0 Z " fill="#5741A9" transform="translate(135,74)"/>
<path d="M0 0 C0.66 0 1.32 0 2 0 C1.67 1.65 1.34 3.3 1 5 C-1.31 5 -3.62 5 -6 5 C-2.25 3 -2.25 3 0 3 C0 2.01 0 1.02 0 0 Z " fill="#B5513F" transform="translate(272,128)"/>
</svg>
